<?xml version="1.0" encoding="utf-8"?>
<!-- Generator: Adobe Illustrator 16.0.0, SVG Export Plug-In . SVG Version: 6.00 Build 0)  -->
<!DOCTYPE svg PUBLIC "-//W3C//DTD SVG 1.1//EN" "http://www.w3.org/Graphics/SVG/1.1/DTD/svg11.dtd">
<svg version="1.1" id="Isolation_Mode" xmlns="http://www.w3.org/2000/svg" xmlns:xlink="http://www.w3.org/1999/xlink" x="0px"
	 y="0px" width="221px" height="51px" viewBox="0 0 221 51" style="enable-background:new 0 0 221 51;" xml:space="preserve">
<style type="text/css">
<![CDATA[
	.st0{clip-path:url(#SVGID_11_);mask:url(#SVGID_12_);fill:url(#SVGID_14_);}
	.st1{fill:#19181C;}
	.st2{filter:url(#Adobe_OpacityMaskFilter);}
	.st3{clip-path:url(#SVGID_4_);mask:url(#SVGID_5_);fill:url(#SVGID_7_);}
	.st4{fill:#1C1B20;}
	.st5{clip-path:url(#SVGID_11_);fill:url(#SVGID_13_);}
	.st6{clip-path:url(#SVGID_2_);}
	.st7{clip-path:url(#SVGID_9_);}
	.st8{fill:#2B2622;}
	.st9{clip-path:url(#SVGID_4_);fill:url(#SVGID_6_);}
	.st10{fill:#DD271D;}
	.st11{filter:url(#Adobe_OpacityMaskFilter_1_);}
]]>
</style>
<g>
	<g>
		<path class="st4" d="M87.2,49.4c-1,0-1.6-0.5-1.6-1.3v-1.6c0-1.2,1-1.3,2.3-1.3h0.5c1.1,0,1.5,0.4,1.5,1.2v0.1h-0.6v-0.1
			c0-0.6-0.2-0.8-1-0.8h-0.3c-1.3,0-1.7,0.1-1.7,0.9v1.2c0,1,0.1,1.4,1.1,1.4H88c1,0,1.3-0.1,1.3-0.7V48h0.6v0.4
			c0,1-0.8,1.1-1.9,1.1H87.2z"/>
		<path class="st4" d="M95.8,45.1c1.4,0,1.8,0.4,1.8,1.4v1.5c0,1-0.5,1.4-1.8,1.4h-0.7c-1.3,0-1.8-0.4-1.8-1.4v-1.5
			c0-1.1,0.4-1.4,1.8-1.4H95.8z M95.1,45.6c-0.9,0-1.2,0.2-1.2,1v1.5c0,0.8,0.4,0.9,1.2,0.9h0.7c0.8,0,1.2-0.1,1.2-0.9v-1.5
			c0-0.8-0.2-1-1.2-1H95.1z"/>
		<polygon class="st4" points="106,49.4 105,49.4 102,45.6 101.9,45.6 101.9,49.4 101.3,49.4 101.3,45.2 102.3,45.2 105.4,49 
			105.4,49 105.4,45.2 106,45.2 		"/>
		<path class="st4" d="M109.7,46.4c0-1.1,0.7-1.2,2-1.2c1.2,0,2,0,2,1.2h-0.6c0-0.7-0.2-0.8-1.4-0.8c-1.2,0-1.4,0.1-1.4,0.7
			c0,0.8,0.5,0.7,1.5,0.8c1.3,0.1,2,0,2,1.2c0,1.2-0.7,1.2-2.1,1.2c-1.4,0-2.1-0.1-2-1.4h0.6c0,0.9,0.2,0.9,1.4,0.9
			c1.2,0,1.5,0,1.5-0.8c0-0.8-0.5-0.7-1.5-0.7C110.6,47.4,109.7,47.5,109.7,46.4"/>
		<polygon class="st4" points="119.4,49.4 118.7,49.4 118.7,45.6 117,45.6 117,45.2 121.1,45.2 121.1,45.6 119.4,45.6 		"/>
		<path class="st4" d="M125.2,49.4h-0.6v-4.2h2.5c1.2,0,1.7,0.2,1.7,1.2c0,0.6-0.1,1-1,1.1v0c0.6,0,0.9,0.3,0.9,0.8v1.1h-0.6v-0.9
			c0-0.5-0.2-0.8-0.9-0.8h-2V49.4z M127.1,47.3c1,0,1.1-0.2,1.1-0.9c0-0.5-0.1-0.8-1.1-0.8h-1.9v1.7H127.1z"/>
		<path class="st4" d="M136.9,45.2v3.1c0,1.1-0.9,1.2-2.2,1.2c-1.2,0-2.2,0-2.2-1.2v-3.1h0.6v3.1c0,0.7,0.2,0.8,1.5,0.8
			c1.1,0,1.6,0,1.6-0.8v-3.1H136.9z"/>
		<rect x="140.9" y="45.2" class="st4" width="0.6" height="4.2"/>
		<polygon class="st4" points="148.8,49.4 148.2,49.4 146.1,45.5 146.1,45.5 146.1,49.4 145.4,49.4 145.4,45.2 146.5,45.2 
			148.5,48.8 150.4,45.2 151.5,45.2 151.5,49.4 150.8,49.4 150.8,45.5 150.8,45.5 		"/>
		<path class="st4" d="M157.7,45.1c1.4,0,1.8,0.4,1.8,1.4v1.5c0,1-0.5,1.4-1.8,1.4H157c-1.3,0-1.8-0.4-1.8-1.4v-1.5
			c0-1.1,0.4-1.4,1.8-1.4H157.7z M157,45.6c-0.9,0-1.2,0.2-1.2,1v1.5c0,0.8,0.4,0.9,1.2,0.9h0.7c0.8,0,1.2-0.1,1.2-0.9v-1.5
			c0-0.8-0.2-1-1.2-1H157z"/>
		<path class="st4" d="M162.9,46.4c0-1.1,0.7-1.2,2-1.2c1.2,0,2,0,2,1.2h-0.6c0-0.7-0.2-0.8-1.4-0.8c-1.2,0-1.4,0.1-1.4,0.7
			c0,0.8,0.5,0.7,1.5,0.8c1.3,0.1,2,0,2,1.2c0,1.2-0.7,1.2-2.1,1.2c-1.4,0-2.1-0.1-2-1.4h0.6c0,0.9,0.2,0.9,1.4,0.9
			c1.2,0,1.5,0,1.5-0.8c0-0.8-0.5-0.7-1.5-0.7C163.9,47.4,162.9,47.5,162.9,46.4"/>
		<path class="st4" d="M176,45.2h2.8c1.1,0,1.3,0.6,1.3,1.3c0,0.4,0,1.3-1.3,1.3h-2.1v1.6H176V45.2z M176.7,45.6v1.7h1.6
			c0.8,0,1.3,0,1.3-0.8c0-0.8-0.2-0.9-1-0.9H176.7z"/>
		<path class="st4" d="M184.5,48.5l-0.4,0.9h-0.6l2-4.2h0.9l2,4.2h-0.6l-0.4-0.9H184.5z M185.8,45.6l-1.2,2.5h2.4L185.8,45.6z"/>
		<path class="st4" d="M192.4,49.4h-0.6v-4.2h2.5c1.2,0,1.7,0.2,1.7,1.2c0,0.6-0.1,1-1,1.1v0c0.6,0,0.9,0.3,0.9,0.8v1.1h-0.6v-0.9
			c0-0.5-0.2-0.8-0.9-0.8h-2V49.4z M194.3,47.3c1,0,1.1-0.2,1.1-0.9c0-0.5-0.1-0.8-1.1-0.8h-1.9v1.7H194.3z"/>
		<path class="st4" d="M200.4,48.5l-0.4,0.9h-0.6l2-4.2h0.9l2,4.2h-0.6l-0.4-0.9H200.4z M201.7,45.6l-1.2,2.5h2.4L201.7,45.6z"/>
		<polygon class="st4" points="215,49.4 214.4,49.4 214.4,45.6 212.6,45.6 212.6,45.2 216.8,45.2 216.8,45.6 215,45.6 		"/>
		<rect x="220.2" y="45.2" class="st4" width="0.6" height="4.2"/>
		<path class="st1" d="M168.9,6.3c-0.4,1.1-1,1.9-1.7,2.5c-0.8,0.6-1.7,0.8-2.8,0.8c-0.7,0-1.3-0.1-1.9-0.3
			c-0.6-0.2-1.1-0.6-1.5-1.1c-0.4-0.4-0.8-1-1-1.6c-0.2-0.6-0.4-1.2-0.4-1.8c0-0.6,0.1-1.2,0.3-1.8c0.2-0.6,0.6-1.1,1-1.5
			c0.5-0.5,1-0.9,1.6-1.1c0.6-0.3,1.2-0.4,1.9-0.4c1.1,0,2,0.3,2.8,0.9c0.8,0.6,1.4,1.4,1.7,2.4H167c-0.3-0.6-0.7-1-1.1-1.2
			c-0.5-0.3-1-0.4-1.7-0.4c-0.8,0-1.5,0.3-2.1,0.9c-0.6,0.6-0.9,1.4-0.9,2.3c0,0.9,0.3,1.7,0.9,2.3c0.6,0.6,1.3,0.9,2.2,0.9
			c0.6,0,1.1-0.1,1.6-0.4c0.5-0.3,0.8-0.7,1.1-1.3H168.9z"/>
		<path class="st1" d="M180.5,9.4V8.3c-0.4,0.4-0.9,0.8-1.4,1c-0.5,0.2-1.1,0.3-1.7,0.3c-1.4,0-2.6-0.5-3.5-1.4
			c-0.9-0.9-1.4-2-1.4-3.4c0-0.6,0.1-1.2,0.3-1.8c0.2-0.6,0.6-1.1,1-1.5c0.5-0.5,1-0.8,1.5-1.1c0.6-0.2,1.2-0.3,1.9-0.3
			c0.6,0,1.2,0.1,1.8,0.3c0.5,0.2,1,0.6,1.5,1V0.3h1.7v9.1H180.5z M174.2,4.8c0,0.9,0.3,1.7,0.9,2.3c0.6,0.6,1.4,0.9,2.3,0.9
			c0.8,0,1.5-0.3,2.2-0.9c0.6-0.6,0.9-1.4,0.9-2.2c0-0.9-0.3-1.7-0.9-2.3c-0.6-0.6-1.4-1-2.2-1c-0.9,0-1.6,0.3-2.3,0.9
			C174.6,3.2,174.2,3.9,174.2,4.8"/>
		<path class="st1" d="M185.9,6.4h1.6c0,0.5,0.1,0.9,0.4,1.2c0.3,0.3,0.6,0.5,1,0.5c0.4,0,0.7-0.1,1-0.3c0.3-0.2,0.4-0.5,0.4-0.9
			c0-0.3-0.1-0.6-0.3-0.8c-0.2-0.2-0.5-0.4-0.9-0.6c-0.1-0.1-0.3-0.1-0.6-0.2c-0.7-0.2-1.1-0.4-1.3-0.6c-0.3-0.3-0.6-0.6-0.7-0.9
			c-0.2-0.3-0.2-0.7-0.2-1.1c0-0.7,0.3-1.4,0.8-1.9c0.5-0.5,1.2-0.8,1.9-0.8c0.8,0,1.4,0.2,1.9,0.7c0.5,0.5,0.7,1.1,0.8,1.9h-1.6
			c0-0.3-0.1-0.6-0.3-0.8c-0.2-0.2-0.5-0.3-0.8-0.3c-0.3,0-0.5,0.1-0.7,0.3C188.1,2,188,2.3,188,2.6c0,0.5,0.4,0.9,1.3,1.2
			c0.3,0.1,0.5,0.2,0.6,0.2c0.7,0.3,1.2,0.6,1.5,1.1c0.3,0.4,0.5,1,0.5,1.7c0,0.8-0.3,1.5-0.8,2c-0.6,0.5-1.3,0.8-2.1,0.8
			c-0.9,0-1.6-0.3-2.1-0.8C186.3,8.2,186,7.4,185.9,6.4"/>
		<path class="st1" d="M203.3,9.4V8.3c-0.4,0.4-0.9,0.8-1.4,1c-0.5,0.2-1.1,0.3-1.7,0.3c-1.4,0-2.6-0.5-3.5-1.4
			c-0.9-0.9-1.4-2-1.4-3.4c0-0.6,0.1-1.2,0.3-1.8c0.2-0.6,0.6-1.1,1-1.5c0.5-0.5,1-0.8,1.5-1.1c0.6-0.2,1.2-0.3,1.9-0.3
			c0.6,0,1.2,0.1,1.8,0.3c0.5,0.2,1,0.6,1.5,1V0.3h1.7v9.1H203.3z M197,4.8c0,0.9,0.3,1.7,0.9,2.3c0.6,0.6,1.4,0.9,2.3,0.9
			c0.8,0,1.5-0.3,2.2-0.9c0.6-0.6,0.9-1.4,0.9-2.2c0-0.9-0.3-1.7-0.9-2.3c-0.6-0.6-1.4-1-2.2-1c-0.9,0-1.6,0.3-2.2,0.9
			C197.3,3.2,197,3.9,197,4.8"/>
		<path class="st1" d="M208.7,6.4h1.6c0,0.5,0.1,0.9,0.4,1.2c0.3,0.3,0.6,0.5,1,0.5c0.4,0,0.7-0.1,1-0.3c0.3-0.2,0.4-0.5,0.4-0.9
			c0-0.3-0.1-0.6-0.3-0.8c-0.2-0.2-0.5-0.4-0.9-0.6c-0.1-0.1-0.3-0.1-0.6-0.2c-0.7-0.2-1.1-0.4-1.3-0.6c-0.3-0.3-0.6-0.6-0.7-0.9
			c-0.2-0.3-0.2-0.7-0.2-1.1c0-0.7,0.3-1.4,0.8-1.9c0.5-0.5,1.2-0.8,1.9-0.8c0.8,0,1.4,0.2,1.9,0.7c0.5,0.5,0.7,1.1,0.8,1.9h-1.6
			c0-0.3-0.1-0.6-0.3-0.8c-0.2-0.2-0.5-0.3-0.8-0.3c-0.3,0-0.5,0.1-0.8,0.3c-0.2,0.2-0.3,0.4-0.3,0.7c0,0.5,0.5,0.9,1.3,1.2
			c0.3,0.1,0.5,0.2,0.6,0.2c0.7,0.3,1.2,0.6,1.5,1.1c0.3,0.4,0.5,1,0.5,1.7c0,0.8-0.3,1.5-0.8,2c-0.6,0.5-1.3,0.8-2.1,0.8
			c-0.9,0-1.6-0.3-2.1-0.8C209.1,8.2,208.8,7.4,208.7,6.4"/>
		<polygon class="st8" points="21.2,30.2 3.5,30.2 8.3,36.9 26,36.9 45,11.6 40.2,4.9 		"/>
		<polygon class="st10" points="4.5,30.7 21.5,30.7 40.2,5.7 44.4,11.6 25.8,36.5 8.6,36.5 		"/>
		<polygon class="st8" points="28,39.6 10.2,39.6 15.1,46.3 32.8,46.3 51.8,21 47,14.3 		"/>
		<polygon class="st10" points="11.2,40.1 28.2,40.1 46.9,15.2 51.1,21 32.5,45.9 15.3,45.9 		"/>
		<polygon class="st8" points="55.1,25.6 50.5,25.6 33.9,47.9 20.7,47.9 18.4,51 36.1,51 		"/>
		<polygon class="st10" points="19.4,50.5 21,48.4 34.1,48.4 50.7,26.1 54.1,26.1 35.9,50.5 		"/>
		<polygon class="st8" points="17.7,25.4 0,25.4 19,0 36.7,0 		"/>
		<polygon class="st10" points="1,24.9 19.2,0.5 35.7,0.5 17.5,24.9 		"/>
		<path class="st4" d="M81.9,33.6L81.9,33.6l0-20.3h-6v17.1l0,0v5.8c0,0,0,3.8-3.7,3.7c0,0-6.3,0.5-9.4-0.8l-0.2,3.5
			c0,0,18.3,4.6,19.3-7.6l0-0.4C81.9,34.7,81.9,33.8,81.9,33.6"/>
		<path class="st4" d="M118.4,37.9h6.8l-15.5-24.5h-7.1L85.5,37.8l5.8,0l4.3-6.1h19L118.4,37.9z M97.7,28.6l7.8-11.1l7,11.1H97.7z"
			/>
		<polygon class="st4" points="165.5,35.4 165.5,26.9 180.7,26.9 180.7,24.1 165.5,24.1 165.5,16.1 183.6,16.1 183.6,13.3 
			159.5,13.3 159.5,37.9 184.7,37.9 184.7,35.4 		"/>
		<path class="st4" d="M207,26.5c3.5-1,7.4-2.9,7.6-6.7c0,0,0.4-6.6-8.9-6.5l-17.6,0v24.5h6.5V27.5l5.8,0l12.8,10.3h7.8L207,26.5z
			 M194.7,25.2v-9.1h8.4c0,0,5.6,0.2,5.5,4.4c0,0,0.3,4.8-6,4.8H194.7z"/>
		<polygon class="st4" points="149.4,13.3 137.5,33.4 137.1,33.4 125.2,13.3 118.8,13.3 133.3,37.9 141.2,37.9 155.8,13.3 		"/>
		<g>
			<g>
				<defs>
					<rect id="SVGID_1_" x="4.5" y="30.7" width="21.3" height="5.7"/>
				</defs>
				<clipPath id="SVGID_2_">
					<use xlink:href="#SVGID_1_"  style="overflow:visible;"/>
				</clipPath>
				<g class="st6">
					<defs>
						<polygon id="SVGID_3_" points="21.5,30.7 25.8,36.5 8.6,36.5 4.5,30.7 						"/>
					</defs>
					<clipPath id="SVGID_4_">
						<use xlink:href="#SVGID_3_"  style="overflow:visible;"/>
					</clipPath>
					<defs>
						<filter id="Adobe_OpacityMaskFilter" filterUnits="userSpaceOnUse" x="4.5" y="30.7" width="21.3" height="5.7">
							<feColorMatrix  type="matrix" values="1 0 0 0 0  0 1 0 0 0  0 0 1 0 0  0 0 0 1 0"/>
						</filter>
					</defs>
					<mask maskUnits="userSpaceOnUse" x="4.5" y="30.7" width="21.3" height="5.7" id="SVGID_5_">
						<g class="st2">
							
								<linearGradient id="SVGID_6_" gradientUnits="userSpaceOnUse" x1="-548.3618" y1="-13.6445" x2="-547.6719" y2="-13.6445" gradientTransform="matrix(30.8955 0 0 -30.8955 16946.3828 -387.9766)">
								<stop  offset="0" style="stop-color:#000000"/>
								<stop  offset="0.415" style="stop-color:#3B3B3B"/>
								<stop  offset="0.807" style="stop-color:#6C6C6C"/>
								<stop  offset="1" style="stop-color:#808080"/>
							</linearGradient>
							<rect x="4.5" y="30.7" class="st9" width="21.3" height="5.7"/>
						</g>
					</mask>
					
						<linearGradient id="SVGID_7_" gradientUnits="userSpaceOnUse" x1="-548.3618" y1="-13.6445" x2="-547.6719" y2="-13.6445" gradientTransform="matrix(30.8955 0 0 -30.8955 16946.3828 -387.9766)">
						<stop  offset="0" style="stop-color:#FFFFFE"/>
						<stop  offset="0.2904" style="stop-color:#BAB8B6"/>
						<stop  offset="0.6343" style="stop-color:#6D6A67"/>
						<stop  offset="0.8794" style="stop-color:#3D3935"/>
						<stop  offset="1" style="stop-color:#2B2622"/>
					</linearGradient>
					<rect x="4.5" y="30.7" class="st3" width="21.3" height="5.7"/>
				</g>
			</g>
		</g>
		<g>
			<g>
				<defs>
					<rect id="SVGID_8_" x="11.2" y="40.1" width="21.3" height="5.7"/>
				</defs>
				<clipPath id="SVGID_9_">
					<use xlink:href="#SVGID_8_"  style="overflow:visible;"/>
				</clipPath>
				<g class="st7">
					<defs>
						<polygon id="SVGID_10_" points="28.2,40.1 32.5,45.9 15.3,45.9 11.2,40.1 						"/>
					</defs>
					<clipPath id="SVGID_11_">
						<use xlink:href="#SVGID_10_"  style="overflow:visible;"/>
					</clipPath>
					<defs>
						<filter id="Adobe_OpacityMaskFilter_1_" filterUnits="userSpaceOnUse" x="11.2" y="40.1" width="21.3" height="5.7">
							<feColorMatrix  type="matrix" values="1 0 0 0 0  0 1 0 0 0  0 0 1 0 0  0 0 0 1 0"/>
						</filter>
					</defs>
					<mask maskUnits="userSpaceOnUse" x="11.2" y="40.1" width="21.3" height="5.7" id="SVGID_12_">
						<g class="st11">
							
								<linearGradient id="SVGID_13_" gradientUnits="userSpaceOnUse" x1="-548.46" y1="-13.4961" x2="-547.77" y2="-13.4961" gradientTransform="matrix(30.8955 0 0 -30.8955 16956.1797 -374.0078)">
								<stop  offset="0" style="stop-color:#000000"/>
								<stop  offset="0.415" style="stop-color:#3B3B3B"/>
								<stop  offset="0.807" style="stop-color:#6C6C6C"/>
								<stop  offset="1" style="stop-color:#808080"/>
							</linearGradient>
							<rect x="11.2" y="40.1" class="st5" width="21.3" height="5.7"/>
						</g>
					</mask>
					
						<linearGradient id="SVGID_14_" gradientUnits="userSpaceOnUse" x1="-548.46" y1="-13.4961" x2="-547.77" y2="-13.4961" gradientTransform="matrix(30.8955 0 0 -30.8955 16956.1797 -374.0078)">
						<stop  offset="0" style="stop-color:#FFFFFE"/>
						<stop  offset="0.2904" style="stop-color:#BAB8B6"/>
						<stop  offset="0.6343" style="stop-color:#6D6A67"/>
						<stop  offset="0.8794" style="stop-color:#3D3935"/>
						<stop  offset="1" style="stop-color:#2B2622"/>
					</linearGradient>
					<rect x="11.2" y="40.1" class="st0" width="21.3" height="5.7"/>
				</g>
			</g>
		</g>
	</g>
</g>
</svg>
